<?xml version="1.0" standalone="no"?>
<!DOCTYPE svg PUBLIC "-//W3C//DTD SVG 20010904//EN"
 "http://www.w3.org/TR/2001/REC-SVG-20010904/DTD/svg10.dtd">
<svg version="1.0" xmlns="http://www.w3.org/2000/svg"
 width="1080.000000pt" height="600.000000pt" viewBox="0 0 1080.000000 600.000000"
 preserveAspectRatio="xMidYMid meet">

<g transform="translate(0.000000,600.000000) scale(0.100000,-0.100000)"
fill="#000000" stroke="none">
<path d="M8444 5082 c-28 -15 -63 -37 -79 -49 -15 -13 -36 -23 -47 -23 -14 0
-27 -18 -49 -65 -18 -40 -40 -71 -56 -81 -74 -46 -92 -60 -109 -89 -10 -16
-32 -48 -51 -71 -18 -23 -33 -47 -33 -55 0 -8 -9 -29 -20 -47 -11 -18 -20 -43
-20 -56 0 -12 -9 -31 -20 -41 -11 -10 -20 -28 -20 -40 0 -11 -4 -25 -9 -30
-17 -18 -51 -129 -58 -186 -10 -94 27 -88 63 11 9 25 20 53 25 62 5 10 9 30 9
46 0 34 79 228 123 300 53 89 114 145 190 175 56 22 72 25 89 16 12 -7 45 -13
72 -15 117 -8 392 -128 516 -224 36 -28 82 -62 103 -75 26 -18 37 -33 37 -49
0 -14 5 -37 11 -53 6 -15 15 -44 19 -63 4 -19 11 -47 14 -61 5 -18 2 -31 -10
-43 -16 -16 -16 -21 -1 -69 29 -98 49 -152 64 -180 11 -22 12 -31 3 -42 -7 -8
-9 -26 -6 -40 5 -20 13 -25 37 -25 35 0 72 17 64 30 -3 4 -14 6 -25 3 -17 -5
-20 0 -20 31 0 21 -12 62 -26 92 -14 30 -24 67 -22 83 1 16 -2 35 -8 42 -15
18 -25 75 -18 94 9 22 24 18 24 -5 0 -23 15 -27 24 -5 6 17 -16 69 -46 108
-19 23 -20 31 -10 47 28 45 1 100 -66 131 -20 9 -46 24 -57 34 -19 16 -19 16
8 10 52 -11 24 18 -42 45 -48 20 -69 35 -90 65 -28 42 -114 105 -143 105 -9 0
-29 16 -44 35 -30 39 -82 80 -91 72 -7 -8 91 -118 120 -134 12 -7 17 -12 10
-13 -25 0 -66 22 -113 61 -42 35 -52 39 -81 34 -19 -3 -63 -1 -99 5 -116 20
-159 23 -174 11 -10 -8 -16 -9 -21 -1 -9 14 29 64 68 91 18 12 44 33 59 47 23
22 30 23 44 12 14 -12 18 -11 33 9 17 22 24 23 132 23 63 0 134 -5 159 -12 95
-24 143 -31 152 -22 6 6 29 5 61 -3 29 -7 69 -16 91 -20 26 -4 40 -12 43 -26
4 -14 11 -17 29 -13 32 8 85 -28 110 -74 10 -19 30 -41 44 -50 14 -9 35 -25
47 -36 34 -29 39 -12 9 27 -14 19 -26 40 -26 47 0 7 -7 10 -15 6 -10 -4 -15 1
-15 15 0 52 -95 103 -265 143 -188 43 -211 46 -383 45 -161 -1 -169 -2 -218
-27z"/>
<path d="M8726 5042 c-7 -12 71 -45 91 -38 15 7 13 10 -17 26 -37 20 -66 25
-74 12z"/>
<path d="M8960 5016 c0 -23 20 -30 83 -32 68 -3 66 10 -5 31 -64 19 -78 19
-78 1z"/>
<path d="M8874 4955 c22 -16 76 -20 76 -6 0 12 -26 21 -63 21 -30 -1 -31 -1
-13 -15z"/>
<path d="M9179 4940 c-13 -20 -16 -21 -44 -6 -35 18 -140 22 -151 5 -12 -19
16 -26 66 -17 38 7 56 5 79 -7 17 -8 36 -15 44 -15 15 0 61 -47 70 -72 9 -26
48 -46 102 -52 28 -3 41 -2 30 2 -34 12 -137 108 -165 154 -17 28 -17 28 -31
8z"/>
<path d="M9357 4931 c12 -10 25 -30 29 -44 3 -16 40 -56 89 -99 46 -40 85 -82
86 -92 5 -27 29 -33 29 -7 0 12 -36 57 -90 113 -49 50 -90 97 -90 104 0 16
-39 44 -60 44 -11 -1 -9 -5 7 -19z"/>
<path d="M9414 4935 c24 -18 39 -20 34 -2 -3 6 -15 13 -29 15 -23 2 -23 2 -5
-13z"/>
<path d="M8753 4907 c4 -15 108 -78 121 -74 26 9 10 25 -55 54 -39 18 -69 27
-66 20z"/>
<path d="M8890 4900 c0 -5 11 -12 25 -16 13 -3 29 -12 36 -20 15 -18 29 -18
29 1 0 15 -49 45 -75 45 -8 0 -15 -4 -15 -10z"/>
<path d="M9043 4896 c-29 -14 -29 -23 -1 -32 15 -4 25 -1 35 12 25 34 11 43
-34 20z"/>
<path d="M8906 4841 c-9 -15 23 -36 36 -23 5 5 7 15 4 21 -9 13 -33 14 -40 2z"/>
<path d="M8982 4818 c7 -19 53 -21 68 -4 11 14 7 16 -30 16 -29 0 -40 -4 -38
-12z"/>
<path d="M8920 4785 c0 -6 73 -55 82 -55 5 0 8 7 8 15 0 8 -6 15 -14 15 -7 0
-19 7 -26 15 -11 14 -50 22 -50 10z"/>
<path d="M9310 4656 c0 -16 28 -42 36 -33 8 7 -14 47 -26 47 -6 0 -10 -6 -10
-14z"/>
<path d="M9600 4660 c0 -17 50 -88 67 -94 9 -4 13 -2 9 6 -3 7 -9 21 -12 31
-4 9 -10 17 -15 17 -5 0 -14 11 -19 25 -9 25 -30 35 -30 15z"/>
<path d="M9681 4516 c-1 -27 21 -96 31 -96 13 0 9 32 -11 75 -12 25 -20 33
-20 21z"/>
<path d="M1500 4155 l0 -45 -40 0 c-29 0 -40 -4 -40 -15 0 -11 11 -15 40 -15
l40 0 0 -45 c0 -33 4 -45 15 -45 11 0 15 12 15 45 l0 45 40 0 c29 0 40 4 40
15 0 11 -11 15 -40 15 l-40 0 0 45 c0 33 -4 45 -15 45 -11 0 -15 -12 -15 -45z"/>
<path d="M7934 4190 c-12 -5 -25 -13 -28 -19 -4 -6 -25 -15 -47 -21 -23 -6
-56 -27 -77 -48 -39 -39 -73 -118 -56 -130 12 -8 49 -141 41 -148 -16 -17 -34
20 -52 109 -7 36 -22 34 -30 -3 -6 -25 -9 -29 -21 -19 -27 22 -15 -14 22 -68
27 -39 43 -53 61 -53 21 0 91 -31 132 -59 12 -8 13 -12 1 -25 -10 -13 -11 -40
-7 -114 31 -504 32 -510 79 -610 33 -71 87 -128 129 -137 34 -8 35 -16 9 -74
-24 -51 -25 -65 -6 -58 19 7 26 -13 26 -73 0 -70 27 -214 56 -294 14 -39 41
-125 61 -191 19 -66 41 -124 48 -130 7 -5 36 -75 63 -155 27 -80 70 -197 96
-262 25 -64 46 -122 46 -128 0 -7 8 -24 19 -38 10 -15 28 -45 39 -67 62 -124
102 -190 123 -201 36 -20 65 -17 81 8 13 20 17 21 32 9 12 -10 19 -11 30 -2
11 9 33 10 85 2 39 -5 80 -7 91 -4 14 4 20 0 20 -11 0 -20 19 -21 26 -2 8 21
33 27 57 15 18 -10 25 -8 49 22 15 18 28 43 28 56 0 12 4 24 9 28 18 11 60 96
54 111 -10 27 19 289 43 382 13 52 24 104 24 117 0 13 5 27 10 30 6 4 8 10 5
15 -3 5 1 20 10 34 9 13 12 26 6 28 -6 2 -6 26 0 68 6 36 14 92 19 125 12 85
25 146 37 175 23 56 33 99 33 141 0 25 4 49 9 55 11 13 -6 197 -25 264 -8 30
-21 88 -28 128 -9 54 -18 77 -34 88 -14 10 -22 26 -22 45 0 24 -4 30 -17 27
-10 -2 -17 -10 -15 -17 1 -6 -4 -19 -13 -27 -8 -9 -15 -22 -15 -29 0 -7 -8
-21 -17 -30 -13 -14 -14 -21 -5 -36 18 -28 14 -58 -13 -118 -40 -84 -7 -89 49
-7 27 41 33 86 16 131 -12 32 -4 51 15 35 14 -12 25 -50 55 -203 31 -153 26
-328 -12 -442 -15 -44 -34 -132 -43 -195 -9 -63 -34 -205 -55 -316 -22 -110
-46 -260 -54 -333 -18 -152 -34 -221 -50 -221 -7 0 -12 48 -14 157 -1 86 -6
161 -9 167 -4 6 -6 23 -4 38 3 30 -10 36 -28 14 -9 -10 -9 -20 -2 -34 9 -16 6
-19 -22 -19 -18 0 -38 4 -44 10 -9 6 -17 6 -26 -2 -10 -7 -17 -7 -24 0 -8 8
-19 6 -37 -7 -26 -17 -27 -16 -33 4 -6 25 -14 27 -31 10 -9 -9 -15 -9 -24 0
-19 19 -30 14 -26 -10 4 -28 32 -35 146 -37 101 -1 122 -16 122 -86 l0 -45
-43 0 c-57 0 -84 19 -68 48 14 26 -3 40 -25 21 -10 -8 -14 -24 -12 -41 5 -32
1 -32 -89 -22 -35 5 -53 11 -53 20 0 8 8 14 17 14 13 0 14 3 6 11 -16 16 -42
4 -53 -26 -14 -37 -20 -31 -20 21 0 39 3 45 17 40 20 -8 33 10 33 45 0 37 -19
53 -41 33 -27 -24 -31 1 -4 26 19 18 28 20 38 12 8 -7 17 -9 20 -5 9 8 -22 43
-38 43 -13 0 -28 40 -20 49 3 2 13 -3 23 -12 34 -31 48 -18 15 13 -35 33 -37
69 -2 47 14 -9 21 -9 31 1 9 9 7 18 -11 42 -22 30 -22 32 -5 75 14 38 21 45
44 45 15 0 33 -7 40 -15 16 -19 44 -19 60 0 10 12 10 19 2 27 -9 9 -15 7 -26
-7 -13 -19 -15 -18 -32 18 -10 21 -25 37 -35 37 -9 0 -22 7 -29 15 -12 15 -11
16 58 40 19 7 9 28 -15 35 -32 8 -105 101 -99 125 3 11 6 25 6 31 0 16 45 34
84 34 31 0 34 -3 49 -51 10 -28 17 -59 17 -69 0 -10 6 -21 13 -23 8 -4 8 -8 2
-14 -5 -4 -10 -12 -10 -18 0 -5 -8 -36 -19 -68 -10 -32 -16 -60 -13 -63 3 -3
15 1 27 8 18 11 23 11 36 -6 8 -11 14 -31 14 -44 0 -21 2 -22 15 -12 13 10 17
7 31 -25 23 -55 15 -65 -56 -65 -33 0 -60 -4 -60 -10 0 -5 1 -10 3 -10 2 0 30
-5 63 -11 106 -18 109 -22 74 -66 -26 -33 -25 -46 1 -38 18 6 20 4 14 -14 -5
-15 -2 -21 10 -21 19 0 43 48 29 58 -5 4 -10 30 -12 57 -3 58 -27 150 -48 183
-8 12 -22 22 -32 22 -22 1 -79 47 -69 56 4 4 19 2 33 -5 15 -6 29 -9 32 -6 10
10 -20 139 -50 211 -33 81 -56 108 -78 94 -8 -5 -38 -10 -67 -10 -62 0 -72
-13 -80 -100 -5 -55 -4 -58 31 -92 47 -46 48 -87 1 -223 -42 -123 -54 -206
-33 -226 13 -12 13 -15 -3 -29 -19 -16 -21 -41 -20 -218 l1 -92 25 6 c15 4 25
2 25 -4 0 -6 -10 -12 -22 -14 -22 -3 -23 -8 -26 -90 -1 -49 -7 -88 -12 -88
-11 0 -121 224 -188 385 -74 175 -211 548 -232 632 -11 40 -26 82 -34 95 -8
13 -27 59 -41 103 -23 69 -25 84 -16 117 10 32 9 42 -9 75 -17 31 -20 56 -20
151 0 78 3 111 11 107 6 -4 8 -13 5 -20 -6 -18 41 -83 90 -124 57 -46 286
-152 301 -138 3 4 -3 17 -15 30 -12 13 -22 30 -22 38 0 8 -5 20 -12 27 -7 7
-8 12 -2 12 5 0 32 18 59 41 54 45 85 60 162 78 28 7 60 19 70 26 10 8 32 15
50 15 17 0 35 5 38 10 4 6 21 16 39 24 18 8 51 32 74 55 22 22 45 41 51 41 6
0 8 6 5 14 -3 7 6 26 19 42 13 16 40 59 60 96 21 37 48 80 61 95 13 15 21 35
19 43 -3 10 0 9 7 -2 18 -29 120 -25 157 6 16 14 41 28 56 31 15 4 35 20 44
36 10 16 25 31 34 34 9 3 38 39 65 80 26 41 59 82 72 91 18 12 21 18 12 24
-20 12 -3 40 24 40 22 0 50 20 29 20 -4 0 -14 4 -22 9 -12 8 -12 12 2 25 14
14 14 19 1 44 -7 15 -14 38 -14 52 0 52 -29 104 -69 124 -33 15 -52 17 -123
11 -76 -6 -81 -6 -63 8 18 14 18 16 3 22 -9 4 -29 0 -45 -8 -22 -12 -80 -16
-258 -19 l-230 -3 -47 48 c-26 26 -52 47 -59 47 -19 0 -2 -63 23 -81 14 -11
17 -18 9 -23 -6 -4 -11 -13 -11 -20 0 -10 52 -11 245 -8 242 5 266 2 231 -27
-7 -6 -17 -26 -20 -44 -5 -25 -9 -29 -16 -17 -5 8 -10 22 -10 31 0 20 -27 33
-36 18 -3 -5 -1 -16 6 -24 7 -9 8 -15 0 -20 -15 -9 -12 -25 5 -25 8 0 15 -4
15 -10 0 -5 -9 -10 -21 -10 -15 0 -19 -4 -15 -16 3 -8 1 -24 -4 -35 -9 -16 -6
-21 17 -30 15 -6 23 -13 16 -16 -7 -2 -21 1 -32 6 -22 12 -25 9 -35 -32 -6
-25 -5 -28 14 -22 16 5 20 2 20 -14 0 -23 -16 -36 -25 -21 -18 28 -51 -17 -41
-56 8 -30 23 -31 29 -1 3 21 4 21 12 3 6 -14 3 -24 -15 -38 -18 -15 -20 -21
-10 -33 7 -8 21 -15 31 -15 16 0 19 -8 19 -45 0 -52 -26 -125 -45 -125 -19 0
-38 28 -31 45 7 18 -5 20 -22 3 -16 -16 -15 -38 4 -59 15 -16 14 -20 -2 -49
-10 -16 -33 -36 -51 -42 -18 -7 -33 -18 -33 -24 0 -7 -12 -14 -27 -16 -22 -2
-29 -9 -31 -30 -2 -16 1 -28 7 -28 6 0 11 -4 11 -9 0 -4 -11 -6 -24 -4 -14 3
-51 -9 -94 -31 -188 -95 -498 -153 -597 -112 -21 9 -55 16 -76 16 -53 0 -88
15 -131 58 -25 24 -38 45 -38 63 0 15 -7 32 -15 39 -8 7 -15 18 -15 25 0 7 -6
15 -14 18 -8 3 -19 30 -25 59 -19 98 -40 552 -26 566 6 6 87 23 91 19 3 -2 -4
-15 -14 -28 -11 -13 -24 -55 -30 -94 -9 -66 -9 -73 14 -112 18 -31 34 -45 57
-51 18 -5 32 -14 32 -22 0 -11 -8 -18 -44 -37 -2 -1 6 -14 18 -29 20 -25 20
-29 6 -50 -19 -30 -19 -34 3 -34 14 0 15 -2 2 -10 -8 -5 -27 -10 -41 -10 -15
0 -36 -11 -50 -26 l-24 -27 33 6 c28 6 32 4 32 -16 0 -12 9 -30 20 -40 26 -22
25 -35 -2 -39 -30 -4 -29 -32 0 -36 13 -2 54 5 90 17 37 11 83 24 102 28 19 5
36 16 38 25 2 13 -13 17 -91 23 -115 8 -131 16 -97 46 24 20 31 21 160 15 74
-3 160 -12 190 -20 54 -15 83 -9 58 11 -28 23 -226 73 -286 73 -15 0 -44 5
-64 11 -44 12 -49 32 -17 73 20 25 22 26 34 9 16 -21 26 -13 41 30 11 31 13
32 70 32 89 0 112 24 49 51 -45 18 -83 18 -142 -2 -108 -37 -187 41 -138 137
9 16 30 69 46 117 57 159 117 252 165 252 32 0 30 14 -5 39 -16 12 -38 38 -48
59 -16 32 -26 40 -83 58 -84 27 -130 34 -156 24z m132 -85 c35 -26 70 -104 60
-130 -9 -25 -22 -10 -42 46 -21 56 -58 103 -77 96 -6 -2 -12 -11 -12 -20 0
-14 -65 -57 -87 -57 -4 0 -7 20 -6 45 2 38 6 46 28 53 34 12 98 -4 136 -33z
m-201 8 c-17 -41 -16 -63 4 -92 12 -16 21 -33 21 -39 0 -21 -113 -31 -125 -11
-14 22 7 80 44 119 40 42 69 54 56 23z m155 -63 c0 -5 10 -18 22 -30 12 -11
19 -22 17 -25 -9 -8 -139 7 -139 17 0 5 19 17 43 28 49 22 57 23 57 10z m-51
-81 c36 -13 37 -16 14 -41 -15 -17 -15 -18 14 -18 22 0 33 6 41 25 13 29 27
32 36 8 7 -17 -4 -30 -44 -53 -13 -8 -12 -11 4 -23 17 -13 17 -15 2 -44 -30
-59 -148 -81 -197 -37 -28 25 -36 82 -14 98 16 12 15 13 -14 19 -42 9 -32 23
20 30 58 8 79 -15 79 -87 0 -61 15 -81 30 -41 5 14 21 30 35 37 34 15 32 32
-3 25 -26 -5 -29 -3 -38 36 -6 23 -14 50 -19 60 -9 20 7 22 54 6z m1633 -131
c31 -15 52 -69 51 -129 -1 -50 -8 -68 -58 -154 -83 -141 -112 -170 -244 -247
-75 -45 -106 -35 -118 36 -6 41 -2 43 52 20 42 -17 79 -8 111 27 9 10 24 19
33 19 25 0 89 48 105 78 41 80 54 267 17 260 -13 -3 -17 -23 -21 -113 -3 -61
-11 -119 -17 -131 -6 -11 -28 -29 -48 -40 -31 -17 -37 -17 -46 -4 -8 13 -11
13 -20 -3 -14 -23 -85 -59 -111 -55 -28 4 -34 25 -10 32 11 4 26 21 33 37 7
19 24 35 41 41 23 8 28 16 28 42 0 20 7 35 19 43 17 11 21 7 40 -32 12 -25 21
-49 21 -55 0 -21 20 -9 35 21 15 28 15 33 -2 67 -10 20 -28 42 -41 48 -32 16
-34 18 -22 48 8 21 15 26 30 21 14 -4 22 -1 27 12 9 25 23 33 59 33 40 0 55
-19 62 -75 2 -25 9 -45 13 -45 12 0 11 77 -1 119 -12 42 -24 51 -70 51 -34 0
-61 -11 -170 -70 -30 -17 -60 -30 -67 -30 -21 0 -15 -23 13 -45 23 -18 25 -25
19 -59 -5 -22 -28 -65 -55 -100 -25 -35 -50 -70 -53 -80 -6 -14 -10 -16 -21
-7 -7 6 -21 9 -30 5 -22 -9 -20 9 4 31 11 10 22 26 26 37 4 14 9 16 19 8 20
-17 25 -2 34 112 9 117 27 163 84 207 14 11 20 11 33 0 13 -10 17 -10 24 2 11
16 114 38 150 31 14 -3 33 -9 42 -14z m-573 -790 c-8 -14 -14 -18 -17 -10 -4
13 17 46 25 38 3 -2 -1 -15 -8 -28z m-184 -139 c12 -19 -5 -23 -22 -6 -16 16
-16 17 -1 17 9 0 20 -5 23 -11z m-105 -38 c0 -5 -15 -13 -32 -17 -43 -11 -48
-11 -50 1 -2 5 11 13 27 16 45 10 55 10 55 0z m-106 -20 c12 -18 -22 -32 -61
-25 l-38 8 40 12 c50 16 53 16 59 5z m-384 -26 c23 -8 55 -15 71 -15 15 0 30
-4 34 -9 6 -10 60 -5 112 10 22 7 45 6 75 -1 l43 -12 -50 -25 c-45 -23 -57
-25 -132 -20 -46 3 -83 2 -83 -3 0 -10 19 -16 80 -24 56 -8 75 -19 67 -40 -8
-20 -47 -21 -73 -1 -10 8 -29 15 -42 15 -12 0 -25 7 -28 15 -4 8 -11 15 -17
15 -13 0 -107 90 -107 102 0 11 1 10 50 -7z m520 -1221 c0 -17 -22 -14 -28 4
-2 7 3 12 12 12 9 0 16 -7 16 -16z m242 -160 c63 -6 68 -8 78 -37 12 -35 7
-45 -15 -27 -25 21 -17 -2 20 -57 31 -46 34 -55 23 -78 -13 -28 -19 -30 -36
-13 -9 9 -15 8 -26 -7 -14 -19 -15 -19 -35 5 -11 14 -20 31 -21 38 0 6 -7 12
-15 12 -18 0 -19 -12 -4 -27 7 -7 9 -19 5 -29 -8 -22 -72 -13 -91 13 -13 17
-14 17 -28 -1 -8 -11 -17 -15 -20 -9 -8 13 21 53 39 53 21 0 16 31 -10 64 -16
19 -26 24 -31 16 -4 -6 1 -20 11 -31 9 -10 14 -22 10 -27 -4 -4 -20 7 -34 24
-15 17 -42 48 -59 68 -18 21 -33 42 -33 47 0 10 172 12 272 3z m-235 -110 c-9
-9 -28 6 -21 18 4 6 10 6 17 -1 6 -6 8 -13 4 -17z m39 -90 c-20 -22 -22 -22
-34 -6 -12 16 -14 16 -28 -2 -19 -26 -28 -15 -13 18 13 27 34 35 42 14 2 -7 8
-9 13 -5 4 4 3 16 -3 26 -19 30 -1 34 22 5 l21 -27 -20 -23z"/>
<path d="M8790 1417 c0 -8 9 -22 20 -32 16 -15 23 -16 33 -6 9 9 7 16 -13 31
-30 23 -40 25 -40 7z"/>
<path d="M8980 1417 c0 -23 32 -59 42 -49 7 7 4 19 -8 36 -21 28 -34 33 -34
13z"/>
<path d="M8882 1409 l-23 -9 21 -30 c22 -31 67 -70 81 -70 22 0 5 33 -26 51
-19 12 -35 25 -35 29 0 19 22 21 40 5 10 -9 24 -14 31 -10 8 6 5 13 -12 26
-27 21 -43 22 -77 8z"/>
<path d="M8970 1353 c0 -21 70 -104 82 -97 9 6 -20 55 -39 67 -7 4 -13 15 -13
22 0 8 -7 15 -15 15 -8 0 -15 -3 -15 -7z"/>
<path d="M9030 1352 c0 -5 14 -28 30 -50 29 -40 50 -54 50 -32 0 6 -3 10 -8
10 -7 0 -25 30 -38 63 -6 17 -34 24 -34 9z"/>
<path d="M8910 1260 c0 -14 39 -32 52 -24 7 5 5 11 -7 21 -22 15 -45 17 -45 3z"/>
<path d="M9560 4183 c0 -5 7 -18 15 -29 15 -18 15 -18 13 5 -3 23 -28 44 -28
24z"/>
<path d="M8373 4133 c-4 -11 3 -24 21 -38 l28 -22 -46 -61 c-45 -58 -57 -94
-36 -107 5 -3 21 18 34 48 30 70 46 80 43 30 -3 -52 21 -54 106 -8 37 19 76
35 87 35 29 0 25 17 -6 24 -28 7 -86 -8 -119 -30 -28 -20 -35 -17 -35 15 0 49
19 56 123 44 111 -12 134 -5 83 25 -20 12 -36 26 -36 31 0 18 -64 31 -152 31
-73 0 -90 -3 -95 -17z"/>
<path d="M1230 4033 l0 -68 -60 3 c-55 4 -60 2 -60 -17 0 -19 6 -21 60 -21
l59 0 3 -67 c3 -60 5 -68 23 -68 18 0 20 8 23 68 l3 67 60 0 c52 0 60 2 57 18
-3 14 -14 17 -61 17 l-57 0 0 68 c0 65 -1 67 -25 67 -24 0 -25 -2 -25 -67z"/>
<path d="M1750 4035 l0 -65 -60 0 c-53 0 -60 -2 -60 -20 0 -18 7 -20 60 -20
l59 0 3 -67 c3 -62 5 -68 26 -71 21 -3 22 0 22 67 l0 71 64 0 c55 0 64 2 62
18 -2 14 -15 18 -64 20 l-62 3 0 64 c0 63 -1 65 -25 65 -24 0 -25 -2 -25 -65z"/>
<path d="M8774 4059 c-6 -11 43 -59 61 -59 7 0 18 -7 25 -15 7 -8 19 -15 27
-15 19 0 13 41 -7 50 -8 4 -34 16 -57 27 -24 12 -45 17 -49 12z"/>
<path d="M9500 4015 c-17 -20 9 -21 36 0 19 14 19 14 -2 15 -12 0 -27 -7 -34
-15z"/>
<path d="M4020 3715 l0 -285 35 0 35 0 0 285 0 285 -35 0 -35 0 0 -285z"/>
<path d="M8508 3949 c-32 -16 -58 -33 -58 -38 0 -5 15 -11 33 -14 17 -3 53
-13 78 -22 45 -16 48 -16 88 5 23 11 41 26 38 33 -4 13 -69 51 -102 60 -12 4
-44 -6 -77 -24z m80 -37 c2 -8 -5 -7 -27 1 -16 6 -28 14 -25 19 6 9 47 -6 52
-20z"/>
<path d="M3490 3721 l0 -219 50 -11 c88 -19 143 -9 192 36 69 65 49 210 -36
252 -30 14 -81 17 -115 6 -20 -6 -21 -3 -21 74 l0 81 -35 0 -35 0 0 -219z
m180 -1 c41 -22 49 -113 13 -152 -18 -21 -72 -33 -102 -23 -19 6 -21 14 -21
89 0 45 3 86 7 89 10 11 82 8 103 -3z"/>
<path d="M2428 3828 l-3 -93 -82 -3 c-81 -3 -83 -3 -83 -27 0 -25 1 -25 85
-25 l85 0 0 -100 0 -100 35 0 35 0 0 100 0 100 85 0 c84 0 85 0 85 25 0 25 -1
25 -85 25 l-84 0 -3 93 -3 92 -32 3 -32 3 -3 -93z"/>
<path d="M8697 3883 c-13 -12 -7 -24 16 -33 39 -16 -115 -11 -169 5 -90 27
-132 13 -86 -28 15 -14 42 -17 140 -18 136 -1 143 -6 92 -58 -40 -40 -120 -58
-184 -42 -54 13 -76 14 -76 2 0 -25 130 -47 187 -32 49 14 114 68 147 125 32
54 32 54 4 65 -47 17 -65 21 -71 14z"/>
<path d="M1490 3805 l0 -75 -70 0 c-68 0 -70 -1 -70 -25 0 -24 2 -25 70 -25
l70 0 0 -75 c0 -73 1 -75 25 -75 24 0 25 2 25 75 l0 75 70 0 c68 0 70 1 70 25
0 24 -2 25 -70 25 l-70 0 0 75 c0 73 -1 75 -25 75 -24 0 -25 -2 -25 -75z"/>
<path d="M1898 3773 l-3 -48 -42 -3 c-29 -2 -43 -8 -43 -17 0 -9 14 -15 43
-17 l42 -3 3 -48 c3 -39 6 -48 20 -45 13 3 17 14 18 48 l0 45 42 3 c28 2 42 8
42 17 0 9 -14 15 -42 17 l-42 3 0 45 c-1 34 -5 45 -18 48 -14 3 -17 -6 -20
-45z"/>
<path d="M1100 3765 l0 -45 -45 0 c-33 0 -45 -4 -45 -15 0 -11 12 -15 45 -15
l45 0 0 -45 c0 -25 5 -45 10 -45 6 0 10 20 10 45 l0 45 40 0 c29 0 40 4 40 15
0 11 -11 15 -40 15 l-40 0 0 45 c0 25 -4 45 -10 45 -5 0 -10 -20 -10 -45z"/>
<path d="M3013 3790 c-72 -16 -113 -71 -113 -152 0 -96 61 -153 165 -153 33 0
72 3 88 8 l27 7 0 150 0 150 -29 0 c-16 0 -31 -5 -33 -11 -3 -8 -14 -8 -38 -2
-19 5 -50 6 -67 3z m91 -66 c13 -5 16 -23 16 -89 0 -89 -4 -95 -56 -95 -32 0
-80 25 -88 45 -14 37 -6 99 16 122 21 23 75 31 112 17z"/>
<path d="M4992 3789 c-104 -22 -145 -170 -70 -255 36 -41 93 -58 163 -49 81
10 79 5 80 167 0 142 0 143 -23 146 -13 2 -29 -1 -35 -7 -8 -6 -27 -7 -47 -2
-19 4 -50 4 -68 0z m92 -65 c13 -5 16 -23 16 -89 0 -76 -2 -84 -21 -90 -35
-12 -87 4 -110 33 -28 35 -22 107 11 134 22 18 74 24 104 12z"/>
<path d="M4421 3773 c-91 -48 -97 -200 -10 -265 32 -24 125 -34 173 -18 31 10
36 16 36 42 0 25 -3 29 -17 23 -10 -4 -43 -9 -74 -12 -48 -5 -58 -2 -82 18
-14 13 -27 33 -29 44 -3 19 3 20 109 23 l112 3 -6 32 c-8 42 -26 78 -52 101
-31 28 -116 32 -160 9z m127 -55 c7 -7 12 -20 12 -30 0 -16 -9 -18 -70 -18
-38 0 -70 4 -70 10 0 5 10 18 22 30 24 22 87 27 106 8z"/>
<path d="M5420 3669 c0 -120 0 -121 29 -150 16 -16 40 -30 53 -30 92 -6 142
10 163 52 11 20 15 62 15 139 l0 111 -30 -3 -31 -3 -2 -108 c-2 -101 -4 -110
-26 -128 -30 -25 -66 -24 -91 1 -18 18 -20 33 -20 130 l0 110 -30 0 -30 0 0
-121z"/>
<path d="M5759 3773 c-10 -11 -10 -14 -1 -9 8 5 12 0 12 -16 0 -19 -2 -20 -11
-8 -8 12 -10 12 -7 1 8 -27 36 -37 53 -18 8 9 10 12 3 7 -21 -18 -34 -11 -33
18 0 15 7 30 15 34 13 6 13 7 -1 7 -9 1 -23 -7 -30 -16z"/>
<path d="M5791 3754 c0 -11 3 -14 6 -6 3 7 2 16 -1 19 -3 4 -6 -2 -5 -13z"/>
<path d="M1230 3550 l0 -70 -60 0 c-53 0 -60 -2 -60 -20 0 -18 7 -20 60 -20
l60 0 0 -65 c0 -63 1 -65 25 -65 24 0 25 2 25 65 l0 65 60 0 c53 0 60 2 60 20
0 18 -7 20 -60 20 l-60 0 0 70 c0 68 -1 70 -25 70 -24 0 -25 -2 -25 -70z"/>
<path d="M1750 3550 l0 -70 -60 0 c-53 0 -60 -2 -60 -20 0 -18 7 -20 60 -20
l60 0 0 -65 0 -65 -65 0 c-36 0 -65 4 -65 9 0 6 -19 11 -42 13 l-42 3 0 45
c-1 34 -5 45 -18 48 -14 3 -17 -6 -20 -45 l-3 -48 -42 -3 c-29 -2 -43 -8 -43
-17 0 -9 14 -15 43 -17 42 -3 42 -3 45 -46 3 -34 7 -43 20 -40 12 2 17 14 18
43 0 37 2 40 32 43 18 2 32 -1 32 -7 0 -6 11 -11 24 -11 53 0 56 -14 56 -240
0 -115 -3 -215 -6 -224 -3 -8 -21 -18 -40 -22 -19 -3 -34 -12 -34 -20 0 -11
33 -14 178 -14 167 0 182 2 222 23 50 26 80 75 80 130 0 70 -40 115 -119 137
-24 6 -23 7 15 26 49 25 79 80 70 129 -12 64 -88 105 -193 105 l-53 0 0 65 0
64 62 3 c50 2 63 6 66 21 3 15 -5 17 -62 17 l-66 0 0 70 c0 68 -1 70 -25 70
-24 0 -25 -2 -25 -70z m187 -304 c29 -34 32 -112 5 -146 -18 -22 -76 -39 -139
-40 l-33 0 0 104 c0 74 4 106 13 110 6 3 39 4 71 2 50 -2 63 -7 83 -30z m10
-242 c62 -40 54 -169 -13 -194 -14 -6 -57 -10 -95 -10 l-69 0 0 116 0 117 77
-7 c42 -3 87 -13 100 -22z"/>
<path d="M9140 3345 c0 -14 5 -25 10 -25 6 0 10 11 10 25 0 14 -4 25 -10 25
-5 0 -10 -11 -10 -25z"/>
<path d="M3093 3310 c-43 -26 -63 -67 -70 -145 l-6 -65 -38 0 c-28 0 -39 -4
-39 -15 0 -11 11 -15 40 -15 l40 0 0 -135 c0 -135 0 -135 -25 -147 -46 -21
-26 -28 75 -28 99 0 132 12 66 24 -19 4 -37 14 -40 22 -3 9 -6 72 -6 140 l0
124 45 0 c33 0 45 4 45 15 0 11 -12 15 -45 15 l-45 0 0 48 c0 110 61 203 80
121 4 -17 13 -24 29 -24 36 0 48 27 28 59 -14 21 -25 26 -60 26 -24 0 -56 -8
-74 -20z"/>
<path d="M4153 3318 c-60 -11 -69 -29 -20 -43 l32 -10 3 -93 3 -93 -30 16
c-67 34 -142 11 -197 -61 -37 -48 -45 -149 -17 -204 40 -77 136 -103 206 -56
35 24 35 24 41 4 4 -19 10 -20 62 -14 58 7 79 15 58 23 -6 2 -20 10 -30 18
-18 12 -19 32 -22 269 -3 234 -4 256 -20 255 -9 -1 -41 -6 -69 -11z m-38 -248
c35 -13 55 -65 55 -140 0 -87 -19 -127 -64 -136 -69 -12 -118 47 -119 145 -1
108 51 160 128 131z"/>
<path d="M5013 3318 c-35 -6 -53 -14 -53 -24 0 -8 8 -14 18 -14 39 0 42 -16
42 -252 l0 -228 -25 -12 c-45 -20 -26 -28 70 -28 93 0 124 12 65 25 l-30 7 0
269 c0 304 10 275 -87 257z"/>
<path d="M1002 3307 c-55 -31 -73 -119 -37 -187 13 -25 14 -35 5 -38 -25 -9
-78 -63 -94 -96 -21 -45 -21 -130 1 -167 43 -73 199 -94 278 -37 l37 26 46
-29 c58 -37 115 -39 163 -6 32 21 60 70 47 82 -3 3 -23 -5 -43 -20 -49 -33
-64 -32 -110 8 l-39 34 25 39 c13 21 34 60 46 87 13 28 35 54 53 65 16 9 30
20 30 25 0 4 -45 7 -100 7 -98 0 -130 -12 -69 -25 37 -8 52 -40 38 -87 -11
-40 -45 -82 -58 -74 -6 4 -37 43 -71 88 l-61 81 28 17 c96 58 113 164 33 205
-35 18 -116 19 -148 2z m118 -27 c30 -30 26 -79 -11 -129 -35 -49 -45 -46 -79
24 -32 66 -10 125 47 125 13 0 32 -9 43 -20z m-94 -257 c15 -21 54 -68 86
-104 32 -37 58 -71 58 -76 0 -17 -50 -33 -105 -33 -43 0 -59 5 -84 26 -55 46
-66 151 -20 200 13 13 26 24 30 24 3 0 19 -17 35 -37z"/>
<path d="M4347 3313 c-18 -18 7 -207 27 -200 13 4 42 167 33 190 -6 17 -47 23
-60 10z"/>
<path d="M9235 3216 c-14 -10 -15 -15 -6 -21 8 -4 19 -1 28 8 20 19 1 30 -22
13z"/>
<path d="M9206 3123 c-9 -10 -7 -63 3 -63 11 0 20 59 11 65 -4 3 -10 2 -14 -2z"/>
<path d="M2218 3085 c-53 -36 -81 -101 -76 -176 5 -66 24 -100 78 -136 65 -45
173 -24 215 41 27 41 7 52 -29 17 -77 -75 -176 -33 -188 79 l-3 35 118 3 117
3 0 25 c0 40 -30 94 -64 115 -46 28 -122 25 -168 -6z m128 -30 c17 -17 24 -34
22 -53 -3 -26 -5 -27 -72 -30 -38 -2 -72 1 -77 5 -13 14 15 77 41 90 37 19 58
16 86 -12z"/>
<path d="M2548 3097 c-52 -11 -63 -31 -23 -41 l25 -6 0 -130 c0 -120 -1 -129
-20 -135 -45 -14 -15 -25 70 -25 89 0 119 12 60 24 l-30 6 0 119 c0 117 1 120
26 140 50 39 106 18 124 -47 5 -20 10 -72 10 -114 0 -78 -13 -108 -46 -108 -8
0 -14 -4 -14 -10 0 -6 37 -10 90 -10 87 0 117 11 65 24 -25 6 -25 7 -25 122 0
129 -11 164 -60 189 -55 29 -143 12 -169 -32 -9 -15 -10 -12 -11 15 0 35 0 35
-72 19z"/>
<path d="M3315 3096 c-16 -8 -42 -26 -57 -42 -79 -85 -60 -233 38 -290 146
-86 315 74 249 234 -41 96 -139 138 -230 98z m120 -40 c45 -45 60 -171 27
-236 -13 -27 -26 -37 -55 -44 -72 -18 -115 42 -116 162 -1 39 5 75 15 93 26
52 90 64 129 25z"/>
<path d="M3656 3097 c-46 -11 -76 -37 -43 -37 38 0 47 -27 47 -146 0 -112 0
-115 -25 -126 -45 -20 -26 -28 70 -28 93 0 124 12 65 25 -38 8 -45 33 -37 133
4 52 12 84 25 101 25 34 58 39 65 11 4 -17 12 -21 34 -18 24 2 28 8 31 36 4
43 -12 62 -55 62 -26 0 -43 -8 -69 -34 l-34 -34 0 34 c0 38 -1 38 -74 21z"/>
<path d="M4452 3085 c-36 -30 -47 -68 -32 -106 14 -34 41 -52 115 -80 60 -22
90 -55 78 -85 -9 -27 -23 -34 -66 -34 -52 0 -70 12 -92 59 -28 63 -48 55 -39
-16 3 -32 8 -60 11 -63 2 -2 36 -5 75 -7 82 -3 125 13 151 56 40 68 2 127
-112 169 -67 26 -88 50 -71 82 25 47 105 32 141 -27 28 -45 44 -31 32 27 l-8
43 -76 4 c-70 3 -79 2 -107 -22z"/>
<path d="M5292 3093 c-41 -20 -65 -54 -60 -85 2 -18 9 -23 33 -23 27 0 30 3
33 35 8 89 122 75 122 -15 0 -32 -3 -35 -42 -46 -108 -29 -158 -72 -158 -136
0 -34 5 -46 25 -59 33 -22 112 -15 151 13 l29 21 18 -24 c22 -30 76 -33 100
-6 19 20 13 34 -9 25 -8 -3 -21 0 -29 7 -12 10 -15 39 -15 135 l0 123 -31 26
c-24 21 -41 26 -82 26 -29 0 -67 -8 -85 -17z m128 -211 c0 -60 -26 -92 -73
-92 -39 0 -57 15 -57 48 0 50 48 91 108 92 20 0 22 -5 22 -48z"/>
<path d="M5540 3090 c0 -5 7 -10 15 -10 22 0 42 -38 105 -194 31 -77 61 -136
68 -136 11 0 61 95 94 180 9 23 13 16 53 -80 24 -59 49 -105 57 -105 8 0 38
63 75 155 34 86 71 162 82 171 12 10 21 20 21 23 0 3 -31 6 -70 6 -70 0 -93
-12 -45 -24 14 -4 25 -13 25 -21 0 -14 -55 -169 -67 -188 -7 -11 -73 156 -73
185 0 11 8 22 20 25 46 12 15 23 -65 23 -80 0 -111 -11 -65 -23 11 -3 27 -21
35 -40 14 -34 13 -38 -20 -109 l-34 -73 -14 35 c-8 19 -27 64 -41 100 l-27 65
21 17 c11 9 20 19 20 22 0 3 -38 6 -85 6 -50 0 -85 -4 -85 -10z"/>
<path d="M8011 2662 c-43 -65 -85 -112 -104 -112 -33 0 -315 -99 -413 -144
-52 -25 -177 -73 -277 -106 -100 -34 -216 -79 -257 -100 -191 -97 -223 -115
-267 -154 -104 -91 -213 -271 -248 -407 -9 -35 -34 -120 -55 -189 -63 -205
-92 -320 -101 -410 -19 -175 -22 -220 -13 -220 14 0 43 123 53 227 5 50 17
105 25 122 9 16 16 43 16 58 0 27 14 73 41 138 7 17 11 34 10 40 -1 5 6 30 17
55 11 25 29 83 41 130 12 47 26 102 31 123 6 20 26 59 45 86 19 27 35 54 35
61 0 23 136 170 157 170 7 0 17 8 22 18 5 9 33 26 61 36 28 10 54 25 57 32 3
8 11 14 18 14 8 0 29 9 47 19 41 24 266 108 308 115 8 2 32 10 54 19 21 10 44
17 51 17 15 0 103 38 200 87 38 19 87 41 110 49 160 57 222 74 243 69 18 -4
22 -2 20 11 -2 11 9 23 29 33 18 9 33 21 33 26 0 19 40 89 55 98 20 11 19 27
-2 27 -10 0 -29 -17 -42 -38z"/>
<path d="M8196 2647 c4 -12 7 -23 8 -24 1 -1 20 1 44 4 26 3 42 11 42 19 0 8
-3 14 -7 15 -5 0 -27 2 -51 4 -40 3 -42 2 -36 -18z"/>
<path d="M8826 1871 c-7 -11 24 -31 49 -31 10 0 15 7 13 18 -4 19 -52 29 -62
13z"/>
<path d="M8964 1815 c-4 -8 -11 -15 -18 -15 -6 0 -19 -11 -28 -24 l-17 -24 46
-4 c49 -4 81 11 68 31 -5 9 -10 10 -18 2 -19 -19 -27 -12 -20 19 6 31 -3 41
-13 15z"/>
<path d="M8827 1806 c-18 -14 -18 -16 -2 -40 16 -24 16 -26 1 -32 -23 -9 -20
-21 9 -40 20 -13 28 -14 40 -4 13 10 19 10 34 -4 12 -11 21 -13 25 -7 4 6 -2
16 -14 23 -11 7 -20 17 -20 23 0 5 -14 19 -30 30 -16 11 -30 23 -30 28 0 12
28 8 33 -5 4 -10 7 -10 17 -1 11 10 11 15 0 28 -15 19 -39 19 -63 1z"/>
<path d="M8940 1722 c0 -12 39 -47 45 -41 11 12 -9 49 -26 49 -11 0 -19 -4
-19 -8z"/>
<path d="M8825 1550 c-7 -12 42 -36 53 -26 4 4 -2 14 -12 22 -23 17 -33 18
-41 4z"/>
<path d="M8825 1063 c4 -10 9 -33 12 -50 6 -35 17 -43 27 -18 8 22 106 21 106
-1 0 -13 -7 -15 -36 -9 -33 6 -40 3 -68 -27 -27 -30 -31 -31 -34 -13 -2 11
-11 26 -20 32 -14 12 -14 14 2 32 25 27 0 39 -27 13 -20 -20 -20 -21 -2 -79
10 -32 22 -64 27 -70 6 -7 8 -19 5 -26 -5 -14 69 -55 80 -44 3 4 -2 16 -11 26
-17 19 -17 21 2 41 14 15 27 20 41 15 27 -8 27 -29 0 -66 l-20 -29 20 0 c16 0
30 19 61 79 22 44 44 82 50 86 5 3 10 31 10 62 0 50 -1 54 -17 42 -14 -12 -35
-15 -143 -20 -14 0 -32 8 -41 20 -21 26 -34 27 -24 4z m203 -60 c-5 -25 -28
-28 -28 -4 0 12 6 21 16 21 9 0 14 -7 12 -17z m-28 -54 c0 -4 -7 -9 -15 -13
-8 -3 -15 -12 -15 -21 0 -8 -4 -15 -9 -15 -11 0 -61 40 -61 49 0 4 23 7 50 7
28 0 50 -3 50 -7z m-110 -24 c0 -12 -33 -55 -41 -55 -14 0 -10 22 8 42 15 17
33 24 33 13z"/>
<path d="M10260 25 c0 -15 26 -32 36 -23 2 3 2 13 -2 22 -8 20 -34 21 -34 1z"/>
</g>
</svg>
